<?xml version="1.0" encoding="UTF-8" standalone="no"?>
<!-- Created with Inkscape (http://www.inkscape.org/) -->

<svg
   width="270.93301mm"
   height="270.93332mm"
   viewBox="0 0 270.93301 270.93332"
   version="1.1"
   id="svg1"
   xml:space="preserve"
   inkscape:version="1.4.2 (ebf0e940d0, 2025-05-08)"
   sodipodi:docname="icon.svg"
   inkscape:export-filename="icon-256.png"
   inkscape:export-xdpi="24.000029"
   inkscape:export-ydpi="24.000029"
   xmlns:inkscape="http://www.inkscape.org/namespaces/inkscape"
   xmlns:sodipodi="http://sodipodi.sourceforge.net/DTD/sodipodi-0.dtd"
   xmlns="http://www.w3.org/2000/svg"
   xmlns:svg="http://www.w3.org/2000/svg"><sodipodi:namedview
     id="namedview1"
     pagecolor="#ffffff"
     bordercolor="#000000"
     borderopacity="0.25"
     inkscape:showpageshadow="2"
     inkscape:pageopacity="0.0"
     inkscape:pagecheckerboard="0"
     inkscape:deskcolor="#d1d1d1"
     inkscape:document-units="mm"
     inkscape:zoom="0.38796647"
     inkscape:cx="-207.49216"
     inkscape:cy="326.0591"
     inkscape:window-width="1920"
     inkscape:window-height="1131"
     inkscape:window-x="0"
     inkscape:window-y="0"
     inkscape:window-maximized="1"
     inkscape:current-layer="g1" /><defs
     id="defs1" /><g
     inkscape:label="Layer 1"
     inkscape:groupmode="layer"
     id="layer1"
     transform="translate(-351.17994,-174.49451)"><g
       id="g1"
       transform="translate(295.29506,-35.462687)"><g
         id="g13"
         transform="matrix(1,0,0,0.99749021,0,0.52694842)"><path
           style="fill:#de8787;stroke-width:0.0674622;stroke-linejoin:bevel"
           d="m 217.85762,321.8798 c -7.58386,0.0481 -17.57751,1.20071 -19.22171,2.21689 -2.85105,1.76205 -2.85214,1.76596 -2.99178,14.91097 -0.0693,6.51327 -0.0195,12.26515 0.11023,12.78198 l 0.23567,0.94028 h 19.37747 c 15.7607,0 19.41594,-0.10173 19.58599,-0.54483 0.26735,-0.6967 -2.18617,-14.19509 -3.34488,-18.40285 -1.5262,-5.54233 -3.67894,-8.89837 -6.93822,-10.81436 -1.80025,-1.05829 -2.17244,-1.11751 -6.81279,-1.08808 z"
           id="path11" /><path
           style="fill:#aa0000;stroke-width:0.0674622;stroke-linejoin:bevel"
           d="m 170.26311,321.76881 c -4.24176,0.15466 -6.29238,1.23081 -8.41454,3.57975 -2.86033,3.16606 -4.28572,7.46723 -6.17929,18.64492 -1.04234,6.15304 -1.20112,7.99549 -0.72937,8.46726 0.15211,0.15212 8.94106,0.22938 19.53087,0.17096 l 19.25445,-0.1062 v -12.50797 -12.50797 l -1.10165,-1.44356 c -1.73454,-2.27305 -3.20959,-2.7277 -11.86966,-3.65644 -4.61138,-0.49456 -7.94575,-0.73349 -10.49081,-0.64071 z"
           id="path10" /><path
           style="fill:#88aa00;stroke-width:0.0674622;stroke-linejoin:bevel"
           d="m 191.4756,284.56446 c -12.49705,0.31994 -15.31124,1.13609 -19.84641,5.75508 -4.51194,4.59536 -7.56812,12.12766 -7.54937,18.60738 0.0206,7.11905 3.5056,9.97965 13.48899,11.07319 7.54237,0.82615 19.80424,1.00532 28.63163,0.4186 10.61806,-0.70572 13.93598,-1.59831 16.40728,-4.41297 1.85351,-2.11102 2.40781,-3.76096 2.40781,-7.1683 0,-8.90614 -5.51722,-18.82507 -12.29707,-22.10804 -3.60298,-1.74464 -10.44056,-2.44149 -21.24286,-2.16494 z"
           id="path9" /><path
           style="fill:#917c6f;stroke-width:0.0674622;stroke-linejoin:bevel"
           d="m 194.97387,266.0178 c -4.23644,0.003 -6.03827,0.52663 -8.03827,2.33351 l -1.61931,1.46195 0.26682,2.93985 c 0.22659,2.50053 0.13311,3.23999 -0.62312,4.95221 -0.48899,1.10705 -1.46471,2.60835 -2.16894,3.3361 -0.70424,0.72777 -1.18946,1.41489 -1.07769,1.52666 0.11177,0.11177 2.8601,9.4e-4 6.1074,-0.24605 5.76056,-0.43816 14.21516,-0.23085 17.97067,0.44097 1.01232,0.1811 1.97864,0.35292 2.14736,0.38107 0.16873,0.0281 0.30678,-0.1011 0.30678,-0.2868 0,-0.18576 -0.47789,-0.78395 -1.06171,-1.32933 -2.64909,-2.47469 -3.93675,-6.48043 -3.08045,-9.58169 0.41043,-1.48645 0.3611,-1.69491 -0.64949,-2.74972 -2.0628,-2.15311 -4.80502,-3.18128 -8.48005,-3.17873 z"
           id="path8" /><path
           style="fill:#040403;stroke-width:1.54592"
           d="m 123.42012,480.71784 c -1.65451,-1.30144 -2.42784,-3.15006 -2.40418,-5.74714 0.0292,-3.20845 1.64077,-6.585 5.52346,-11.57289 1.80149,-2.31428 3.1736,-4.4732 3.1736,-4.99343 0,-0.50406 0.19248,-1.03544 0.42774,-1.18083 1.17185,-0.72425 3.66249,-4.45816 3.66249,-5.49074 0,-0.64559 0.53127,-1.80261 1.23337,-2.68609 2.47911,-3.11956 2.98421,-4.21447 2.50368,-5.4274 -1.25691,-3.17258 -3.34533,-20.85258 -4.14252,-35.06938 -0.35336,-6.30183 -0.3213,-7.69921 0.22058,-9.61205 0.34872,-1.23103 0.80846,-3.04689 1.02161,-4.03525 0.21315,-0.98835 0.60725,-2.06173 0.87576,-2.38526 0.99304,-1.19654 5.33729,-3.08762 9.63792,-4.19546 1.04787,-0.26993 1.73835,-0.68524 1.73835,-1.04556 0,-0.50864 -1.54683,-0.59778 -10.37301,-0.59778 -13.80509,0 -13.88524,0.0124 -15.70535,2.54645 -0.87171,1.21337 -2.28323,2.48593 -3.55098,3.20139 -1.15728,0.65313 -2.64864,1.75883 -3.31413,2.45711 -0.66549,0.69827 -1.7867,1.51224 -2.49158,1.80881 -1.62487,0.68365 -3.85414,3.89276 -4.1293,5.94426 -0.11603,0.86496 -0.004,2.16756 0.24994,2.89471 0.60173,1.72613 0.33302,1.92048 -0.92118,0.66628 -1.52421,-1.52421 -2.0358,-3.87988 -1.29722,-5.97325 0.93657,-2.65451 2.43342,-4.29749 7.75285,-8.50967 2.7191,-2.15311 5.00236,-4.16204 5.07391,-4.4643 0.10799,-0.45606 -5.77104,-0.56882 -34.56247,-0.66292 l -18.331645,-0.11331 -1.853163,-0.92319 c -3.050548,-1.5197 -4.769853,-3.22002 -6.206285,-6.13783 l -1.347489,-2.73713 0.10843,-6.75809 c 0.07785,-4.85198 0.297905,-7.37159 0.780208,-8.93321 0.833533,-2.69885 3.494869,-5.758 6.161922,-7.08302 l 1.947356,-0.96746 22.276214,-0.20451 38.637152,-0.20451 0.50734,-1.02256 c 0.27904,-0.56241 1.63514,-3.32332 3.01357,-6.13535 2.41137,-4.91924 7.50521,-12.98527 10.53693,-16.6851 0.79904,-0.97511 2.01923,-2.06195 2.71154,-2.41523 0.69232,-0.35327 2.03691,-1.35391 2.98797,-2.22364 1.58809,-1.45229 1.9219,-1.58156 4.09023,-1.58405 1.31786,-0.002 4.03162,0.46992 6.14209,1.06703 l 3.78108,1.06975 1.46267,-1.28424 c 0.80447,-0.70633 2.45984,-1.84701 3.67861,-2.53485 2.44054,-1.37735 2.47337,-1.70085 0.36875,-3.63229 -2.08973,-1.91777 -3.04263,-4.67542 -3.0471,-8.81811 l -0.005,-3.70531 -5.08296,-2.5311 c -3.34104,-1.6637 -5.78673,-3.19732 -7.13658,-4.47516 -1.83246,-1.73469 -2.18467,-2.36346 -3.27047,-5.83844 -1.52675,-4.88618 -1.9526,-10.09093 -1.31183,-16.03354 0.5739,-5.32237 1.24154,-7.66981 2.66124,-9.35705 1.25298,-1.48908 1.22919,-1.63651 -1.02798,-6.3703 -1.1869,-2.48917 -1.53202,-3.65101 -1.35197,-4.5513 0.20694,-1.03464 0.0295,-1.37826 -1.23087,-2.38391 -1.05883,-0.84486 -1.47266,-1.49604 -1.47267,-2.31739 0,-0.78226 -0.56323,-1.7492 -1.78679,-3.06767 -0.98273,-1.05893 -2.12172,-2.56954 -2.53109,-3.35692 -0.96946,-1.86465 -0.99735,-5.24885 -0.055,-6.68692 1.014,-1.54755 1.33212,-1.34768 1.16664,0.73297 -0.21935,2.75802 0.52637,4.35827 3.46598,7.43766 1.4759,1.54607 3.22508,3.73134 3.88708,4.85615 0.662,1.12482 1.56459,2.50528 2.00574,3.06768 1.19023,1.5174 3.38019,11.5192 3.08976,14.11132 -0.12599,1.1248 -0.76107,6.18649 -1.4112,11.24815 -0.73951,5.75742 -1.04742,9.46297 -0.82244,9.89732 0.77048,1.48754 13.7199,8.07316 14.69248,7.47208 0.22849,-0.1413 1.14209,-1.40734 2.03022,-2.8136 1.90369,-3.01427 5.67804,-6.73883 8.06076,-7.9544 0.93081,-0.47486 1.80025,-1.03794 1.93211,-1.25131 0.13187,-0.21335 -0.17776,-1.1823 -0.68804,-2.15321 -0.72988,-1.38877 -0.92778,-2.43333 -0.92778,-4.89726 0,-2.88041 0.10002,-3.25553 1.24499,-4.67021 0.68476,-0.84603 2.29528,-2.071 3.57896,-2.72216 1.46411,-0.74267 2.33395,-1.4439 2.33395,-1.88148 0,-0.38365 -1.95037,-2.62691 -4.33417,-4.98501 -2.69407,-2.665 -4.6236,-4.94592 -5.09902,-6.02754 -0.42064,-0.95706 -2.06293,-3.7056 -3.64952,-6.10789 -1.58657,-2.40228 -4.10374,-6.77293 -5.59371,-9.71255 -5.61935,-11.08677 -7.63215,-14.83538 -9.45849,-17.61547 -2.61436,-3.97967 -7.8861,-9.13033 -11.02907,-10.77581 -1.88064,-0.98457 -2.55641,-1.56204 -2.55641,-2.18447 0,-0.76773 0.18759,-0.82808 2.02529,-0.65149 4.07392,0.39144 9.54846,4.83265 13.65246,11.07554 2.51216,3.82141 2.94311,4.63482 7.95328,15.01144 2.00946,4.16182 4.11095,8.11911 4.66998,8.79401 0.55903,0.67489 1.5999,2.33143 2.31303,3.68121 0.71313,1.34977 2.02249,3.41253 2.90968,4.5839 0.8872,1.17136 1.92321,2.73589 2.30227,3.4767 1.45473,2.84311 7.17488,9.32289 8.22995,9.32289 0.28629,0 1.3645,-0.64419 2.39602,-1.43158 1.03151,-0.78736 2.18348,-1.44305 2.55992,-1.45705 0.37647,-0.0139 2.92593,-0.0275 5.66549,-0.0301 5.16574,-0.005 5.89054,0.17162 8.03686,1.95704 0.63591,0.529 1.45515,0.96179 1.82053,0.96179 0.97875,0 4.94203,-4.25116 7.44633,-7.9872 1.20221,-1.79353 2.62786,-3.79543 3.16811,-4.4487 0.54025,-0.65326 1.59558,-2.40184 2.3452,-3.88572 0.7496,-1.48389 1.9557,-3.43422 2.68021,-4.33406 0.72451,-0.89987 3.41493,-5.90733 5.97872,-11.12773 2.56378,-5.22039 5.75687,-11.12934 7.09574,-13.13098 2.97952,-4.45443 7.07543,-8.36922 10.40393,-9.94389 5.01178,-2.37099 7.2268,-0.92687 2.57866,1.68121 -3.39758,1.90641 -8.25852,6.77684 -11.0261,11.04765 -1.23914,1.91217 -4.10995,7.15791 -6.37959,11.65716 -2.26962,4.49926 -5.80908,10.84936 -7.86548,14.11131 -2.05639,3.26198 -4.01463,6.48303 -4.35165,7.15792 -0.33701,0.6749 -2.73716,3.37281 -5.33363,5.99538 -3.10548,3.13669 -4.64105,4.97629 -4.48762,5.37614 0.12831,0.3343 1.0554,1.01843 2.06026,1.52028 3.76252,1.87909 5.29615,4.16194 5.35315,7.9684 0.0266,1.77541 -0.21778,2.97064 -0.88356,4.32164 -0.50616,1.02712 -0.9203,2.07196 -0.9203,2.32186 0,0.24991 0.96632,1.01855 2.14737,1.70809 3.26709,1.90745 7.02642,5.79195 8.64189,8.92966 0.53406,1.03731 0.94526,1.32933 1.8718,1.32933 1.08409,0 12.33483,-5.39401 13.81773,-6.62471 0.778,-0.64567 0.57635,-3.40336 -1.09273,-14.94376 -1.09555,-7.57503 -1.14937,-8.45751 -0.636,-10.4301 0.30844,-1.18519 0.94224,-3.81144 1.40841,-5.83611 0.52412,-2.27636 1.27989,-4.30559 1.98037,-5.3173 0.62302,-0.89986 1.40292,-2.17464 1.7331,-2.83286 0.33016,-0.65822 1.92047,-2.63687 3.53401,-4.39701 3.08956,-3.37028 4.00398,-5.21281 3.73416,-7.52414 -0.18547,-1.58862 0.2342,-1.8267 0.92959,-0.52738 1.68306,3.14484 1.03602,5.90478 -2.27017,9.68338 -1.3049,1.49135 -2.25961,2.97118 -2.25961,3.50243 0,0.50598 -0.56564,1.46057 -1.25699,2.12131 -0.96963,0.92669 -1.21798,1.46945 -1.08634,2.37413 0.11146,0.76636 -0.27334,2.05521 -1.11037,3.71889 -0.70455,1.40034 -1.53486,3.31524 -1.84511,4.25533 -0.54367,1.64734 -0.52537,1.74971 0.50531,2.82552 1.35068,1.40981 2.21831,4.69823 2.76271,10.4711 0.5483,5.8142 -0.0263,11.25884 -1.67507,15.87077 -1.58762,4.44105 -3.33324,6.06331 -10.20093,9.48 l -5.11279,2.54363 -0.21954,4.07616 c -0.24721,4.58979 -0.94579,6.37568 -3.42582,8.75793 -0.8071,0.77527 -1.46743,1.55983 -1.46743,1.7435 0,0.18367 0.98932,0.77148 2.19851,1.30624 1.20918,0.53476 2.93405,1.6368 3.83305,2.44898 0.89898,0.81219 1.8883,1.47661 2.19847,1.47648 0.31019,-10e-5 1.57629,-0.39866 2.8136,-0.88567 1.6541,-0.65107 3.18834,-0.89463 5.79563,-0.92009 3.1049,-0.0303 3.69006,0.081 4.70378,0.89457 0.63676,0.51107 2.06149,1.60785 3.16606,2.43729 3.62432,2.72155 10.4756,12.78644 14.17383,20.82206 0.9176,1.99378 1.89239,4.0852 2.16622,4.64761 l 0.49786,1.02256 15.3228,0.20451 c 41.90059,0.55923 39.29477,0.0594 43.0615,2.72033 1.33562,0.94355 2.18725,2.02604 3.17931,4.04119 1.31057,2.66216 1.36059,2.94885 1.52511,8.73983 0.29654,10.43845 -1.49155,14.34455 -7.92424,17.31051 l -2.0226,0.93257 -11.24812,0.20451 c -30.06977,0.54671 -34.13758,0.27779 -34.02052,0.81804 0.0731,0.33746 0.31839,0.67997 0.54507,0.76115 1.0861,0.38898 9.71044,7.92878 10.696,9.35096 2.22921,3.21674 2.237,6.22855 0.0218,8.44371 -1.46789,1.46789 -1.85702,1.35241 -1.1494,-0.34114 0.8946,-2.14109 0.72585,-3.50697 -0.73666,-5.96207 -0.95224,-1.59852 -1.80846,-2.46358 -3.01839,-3.04958 -0.92897,-0.44992 -2.53539,-1.6003 -3.56981,-2.5564 -1.03442,-0.95609 -2.15312,-1.73835 -2.48602,-1.73835 -0.33288,0 -1.63544,-1.29113 -2.89454,-2.8692 l -2.28931,-2.86922 -12.1462,0.10837 c -7.75256,0.0691 -12.14619,0.25626 -12.14619,0.51732 0,0.22496 1.65656,0.96284 3.68121,1.63972 4.56419,1.52591 7.1792,2.9583 7.83397,4.29112 0.27629,0.56241 0.9094,2.37224 1.40691,4.02186 0.83853,2.78036 0.88603,3.5268 0.65047,10.22559 -0.39215,11.1525 -2.9357,34.14758 -3.99642,36.12952 -0.69677,1.30196 -0.36043,2.17832 1.90907,4.97428 1.69183,2.08428 2.15632,2.92397 1.83296,3.31361 -0.47302,0.56994 0.97844,2.85491 2.98734,4.70281 0.62512,0.57503 1.07965,1.43419 1.08196,2.04512 0.002,0.59314 0.64939,1.85784 1.48094,2.89412 6.05858,7.55027 8.01382,11.81123 7.05351,15.37126 -0.46578,1.72672 -2.42212,4.06447 -3.67569,4.39228 -0.97771,0.25568 -0.97026,0.0455 0.0442,-1.24412 1.77428,-2.25565 1.88944,-6.4876 0.21434,-7.8778 -0.32957,-0.27353 -1.05453,-1.49185 -1.61102,-2.70739 -1.25877,-2.74952 -5.33156,-8.21711 -6.36529,-8.5452 -0.42311,-0.13434 -0.88026,-0.74198 -1.01592,-1.35044 -0.3682,-1.65147 -2.57704,-4.98271 -3.54011,-5.33897 -0.57566,-0.21295 -1.45859,-1.73337 -2.78081,-4.78855 -1.91448,-4.42368 -1.95266,-4.4753 -3.23514,-4.37271 -1.20303,0.0963 -1.29779,0.0108 -1.29779,-1.17457 0,-2.3393 1.26355,-9.86319 3.32339,-19.78943 3.63754,-17.52912 4.44806,-21.79878 4.44806,-23.43155 v -1.60577 l -3.21247,-0.26791 c -1.76684,-0.14732 -4.73075,-0.65185 -6.58642,-1.12111 -2.09601,-0.53005 -3.51901,-0.70817 -3.7569,-0.47028 -0.21061,0.21061 -0.56084,2.57526 -0.77829,5.25479 -0.90002,11.09014 -3.18228,19.75079 -7.42163,28.16316 -3.53778,7.02022 -8.04165,12.89066 -13.82932,18.02542 -5.2719,4.67717 -15.39191,10.24473 -20.61166,11.3396 -2.56364,0.53773 -5.31487,-0.0571 -10.21873,-2.20938 -11.84445,-5.19843 -22.09591,-14.94798 -27.86973,-26.50523 -4.14112,-8.28908 -6.95479,-19.35187 -7.77976,-30.58832 -0.18925,-2.57765 -0.43863,-3.78348 -0.78246,-3.78348 -0.27758,0 -1.93329,0.36538 -3.67936,0.81195 -1.74606,0.44657 -4.61859,0.93236 -6.38339,1.07954 -1.98826,0.16582 -3.28394,0.46361 -3.40648,0.78293 -0.10884,0.28344 1.35276,8.27697 3.24784,17.7634 3.3107,16.5728 5.06185,27.16997 4.57092,27.66091 -0.12785,0.12784 -0.59078,0.0405 -1.02889,-0.194 -1.15679,-0.61909 -1.87304,0.11285 -3.15397,3.2232 -0.60222,1.46225 -1.36888,3.31081 -1.70373,4.1079 -0.33483,0.79709 -1.00163,1.62536 -1.48177,1.84061 -0.48576,0.21776 -1.55946,1.74458 -2.42052,3.44206 -0.85113,1.67789 -1.92135,3.25078 -2.37828,3.49532 -1.20691,0.64593 -4.28689,4.87091 -5.95241,8.16526 -0.79237,1.56729 -1.70823,3.14525 -2.03523,3.5066 -1.50507,1.66308 -1.10474,5.3676 0.8712,8.06187 0.57544,0.7846 0.58527,0.9203 0.0666,0.9203 -0.33453,0 -1.0969,-0.38438 -1.69415,-0.85417 z m 28.72694,-128.70399 c 0.20658,-0.39369 0.69029,-2.64843 1.07493,-5.01053 0.62885,-3.86184 2.00082,-10.67985 2.4692,-12.2707 0.33619,-1.14192 -0.46518,-1.65401 -4.12595,-2.63653 -2.00789,-0.53891 -4.55718,-1.3698 -5.66509,-1.84642 -1.72853,-0.74364 -2.09581,-0.78519 -2.58815,-0.29283 -0.74314,0.74312 -9.50877,21.05004 -9.50877,22.0285 0,0.69713 0.56937,0.7443 8.98413,0.7443 8.14054,0 9.01938,-0.0673 9.3597,-0.71579 z m 41.5781,-11.99644 v -12.50772 l -1.10173,-1.44378 c -1.73455,-2.27305 -3.20982,-2.72748 -11.86988,-3.65621 -12.29701,-1.31881 -15.50941,-0.8194 -18.90484,2.93892 -2.86033,3.16606 -4.28577,7.467 -6.17933,18.64469 -1.04235,6.15304 -1.20107,7.99585 -0.72932,8.46762 0.15212,0.15211 8.94105,0.22884 19.53086,0.17042 l 19.25424,-0.10621 z m 41.22839,12.1674 c 0.26736,-0.6967 -2.18584,-14.19467 -3.34455,-18.40243 -1.52621,-5.54233 -3.6797,-8.89862 -6.93898,-10.81461 -1.80025,-1.05829 -2.17215,-1.1177 -6.81249,-1.08826 -7.58386,0.0481 -17.57725,1.20068 -19.22145,2.21686 -2.85105,1.76205 -2.85197,1.76659 -2.99161,14.9116 -0.0693,6.51327 -0.0196,12.26515 0.11007,12.78198 l 0.23585,0.93969 h 19.37705 c 15.7607,0 19.41608,-0.10172 19.58613,-0.54483 z m 20.73864,-0.21406 c 0,-0.41738 -0.84418,-2.67213 -1.87595,-5.01053 -1.03176,-2.33841 -3.07303,-7.01257 -4.53613,-10.387 -1.4631,-3.37444 -2.9098,-6.39499 -3.2149,-6.71234 -0.47598,-0.49509 -0.89727,-0.42325 -2.96816,0.5061 -1.3274,0.59571 -3.86811,1.41401 -5.64602,1.81845 -2.81207,0.63968 -3.25034,0.8591 -3.36923,1.68676 -0.14748,1.02621 2.62334,16.41809 3.22894,17.93715 0.36494,0.91541 0.41467,0.9203 9.37418,0.9203 8.50054,0 9.00727,-0.0427 9.00727,-0.75889 z m -49.49182,-31.55199 c 10.61805,-0.70573 13.93599,-1.59808 16.40729,-4.41274 1.85351,-2.11102 2.40778,-3.76123 2.40778,-7.16856 0,-8.90614 -5.51713,-18.82505 -12.29698,-22.10801 -3.60298,-1.74465 -10.44064,-2.4415 -21.24294,-2.16495 -12.49705,0.31994 -15.31147,1.13606 -19.84664,5.75506 -4.51194,4.59535 -7.56769,12.1273 -7.54894,18.60702 0.0206,7.11905 3.5054,9.97984 13.48879,11.07337 7.54237,0.82616 19.80424,1.00553 28.63164,0.41881 z m 2.04512,-37.56157 c 0,-0.18575 -0.47767,-0.78395 -1.06149,-1.32933 -2.64909,-2.47469 -3.93706,-6.48052 -3.08076,-9.58178 0.41043,-1.48645 0.36122,-1.69484 -0.64936,-2.74965 -2.06281,-2.1531 -4.80469,-3.18078 -8.47972,-3.17823 -4.23644,0.003 -6.03862,0.52592 -8.03862,2.3328 l -1.61893,1.46261 0.26638,2.9395 c 0.22659,2.50053 0.13357,3.24008 -0.62271,4.9523 -0.48899,1.10705 -1.46526,2.60824 -2.16949,3.336 -0.70424,0.72777 -1.18898,1.41465 -1.07721,1.52642 0.11177,0.11177 2.8601,10e-4 6.1074,-0.24585 5.76056,-0.43816 14.21486,-0.23056 17.97037,0.44127 1.01233,0.1811 1.97865,0.35231 2.14737,0.38046 0.16872,0.0281 0.30677,-0.10079 0.30677,-0.28652 z"
           id="path1"
           sodipodi:nodetypes="csssssssssssssscsssssssssscsscssscccssssssscsssccsssssssssssssssssssssssssssssssssssssssssssssssssssssssssssssssssssssssssssssssssssssssscsssssssssssscssssscssssssssssscsssssssssscsssssssssssssscssssssscssssssssssssssssssccsssssssssccssssssccssssssscsssssssssssssssssssssssssssscssssssss" /><path
           id="path13"
           style="fill:#eeffaa;stroke-width:0.0579924;stroke-linejoin:bevel"
           d="m 100.26339,364.36869 a 7.2481411,4.0799917 0 0 0 -7.247379,4.08001 7.2481411,4.0799917 0 0 0 6.985349,4.07732 v 0.003 h 0.14699 a 7.2481411,4.0799917 0 0 0 0.11503,4.4e-4 7.2481411,4.0799917 0 0 0 0.11584,-4.4e-4 h 187.91993 a 7.2481411,4.0799917 0 0 0 0.11578,4.4e-4 7.2481411,4.0799917 0 0 0 0.11502,-4.4e-4 h 0.18055 v -0.003 a 7.2481411,4.0799917 0 0 0 6.9526,-4.0764 7.2481411,4.0799917 0 0 0 -7.2482,-4.08003 7.2481411,4.0799917 0 0 0 -0.68383,0.0184 H 100.94723 a 7.2481411,4.0799917 0 0 0 -0.68384,-0.0184 z" /></g></g></g></svg>
